<svg id="visual" viewBox="0 0 900 600" width="900" height="600" xmlns="http://www.w3.org/2000/svg" xmlns:xlink="http://www.w3.org/1999/xlink" version="1.1"><rect x="0" y="0" width="900" height="600" fill="#07182f"></rect><path d="M0 438L25 433.7C50 429.3 100 420.7 150 425.3C200 430 250 448 300 449.5C350 451 400 436 450 430.7C500 425.3 550 429.7 600 438.2C650 446.7 700 459.3 750 459.2C800 459 850 446 875 439.5L900 433L900 601L875 601C850 601 800 601 750 601C700 601 650 601 600 601C550 601 500 601 450 601C400 601 350 601 300 601C250 601 200 601 150 601C100 601 50 601 25 601L0 601Z" fill="#3275d9" stroke-linecap="round" stroke-linejoin="miter"></path></svg>